<svg width="210" height="48" viewBox="0 0 210 48" fill="none" xmlns="http://www.w3.org/2000/svg">
<path d="M28.7643 17.7159C27.6802 17.5954 26.6971 17.2341 26.2114 17.0281V14.044C26.2114 12.6257 26.0171 11.837 25.9122 11.5067C28.1348 9.76594 30.5167 6.91002 30.3224 2.71747C30.3107 2.42605 30.0854 2.19291 29.7978 2.16571C29.1295 2.09966 28.6399 1.91703 27.5286 1.30699C26.4562 0.720269 22.4813 -0.798998 16.3731 4.34553C12.1495 7.94359 9.04098 15.5322 8.45037 23.688C7.9025 31.2649 5.75377 38.6515 3.5584 40.5088C2.06245 41.7794 0.4033 42.3777 0.387758 42.3855C0.216792 42.4477 0.0846813 42.5798 0.030283 42.7508C-0.0280009 42.9217 -0.000801659 43.1082 0.100224 43.2559C0.247876 43.4735 1.68166 45.3968 6.95053 45.3968C7.8753 45.3968 8.65242 45.3308 9.30909 45.2298C9.31297 45.2375 9.32074 45.2453 9.32463 45.2531V46.6169C9.32463 46.9394 9.58496 47.1998 9.90747 47.1998C10.23 47.1998 10.4903 46.9394 10.4903 46.6169V46.3566C10.4903 46.3566 10.5058 46.3682 10.5136 46.3721C10.704 46.4809 10.8944 46.613 11.0809 46.7374C11.5355 47.0482 12.0057 47.363 12.4836 47.363C12.6157 47.363 12.744 47.3396 12.8761 47.2852C12.9538 47.2542 13.0315 47.2192 13.1053 47.1881C13.4628 47.0327 13.6299 46.9666 13.9368 47.0443C14.5313 47.1959 15.0131 47.1493 15.5766 47.0949C15.697 47.0832 15.8213 47.0715 15.9573 47.0599C16.513 47.0133 16.7811 46.8501 17.0609 46.6791C17.2396 46.5664 17.4455 46.4421 17.8147 46.2944C17.9817 46.2284 18.1061 46.0885 18.1566 45.9175C18.2071 45.7466 18.176 45.56 18.0711 45.4163C17.7486 44.9655 17.5427 44.1457 17.5349 43.2559C17.7991 43.1821 18.5335 43.2209 19.194 43.2559C19.8002 43.2909 20.554 43.3297 21.4127 43.3297C24.1326 43.3297 26.5767 44.2506 26.6 44.2623C26.7826 44.3322 26.9847 44.305 27.144 44.1923C27.3033 44.0796 27.3965 43.897 27.3888 43.7027C27.3693 42.9489 27.4198 41.5734 27.6374 41.0877C27.7501 40.8352 27.6724 40.536 27.447 40.3767C27.1828 40.1863 26.8525 40.1435 26.53 40.1008C26.363 40.0775 26.056 40.0386 26.0016 39.9726C26.0016 39.8327 26.1998 39.4869 26.3785 39.1799C26.9031 38.2668 27.6918 36.8874 27.6918 34.5793C27.6918 31.4942 26.635 30.177 26.021 29.6718C26.2736 29.1978 26.4407 28.6577 26.4135 28.0515C26.3513 26.61 26.3902 25.0247 26.4096 24.4418C27.1051 24.4341 27.3926 24.368 27.8006 24.2748C27.9988 24.2281 28.2358 24.1737 28.5855 24.1116C28.7643 24.0805 28.9197 24.0572 29.0518 24.0377C29.7434 23.9328 30.3418 23.8435 30.3418 22.7516V22.1144C31.0335 21.9551 32.1331 21.5471 32.1331 20.5252C32.1331 18.0889 29.6036 17.8091 28.772 17.7198L28.7643 17.7159Z" fill="#242720"/>
<path d="M38.4353 4.40821C38.4353 3.63498 37.7747 3.47179 37.5532 3.41739V2.75684H52.0543C57.5135 2.75684 62.5298 4.29942 62.5298 10.6407C62.5298 16.982 57.5135 18.5246 52.0543 18.5246H45.8257V25.3632C45.8257 26.1365 46.4862 26.2997 47.0924 26.3541V27.0146H37.5532V26.3541C37.7747 26.2997 38.4353 26.1326 38.4353 25.3632V4.40821ZM45.8218 13.893H51.0596C54.0359 13.893 55.3609 13.0109 55.3609 10.6407C55.3609 8.2705 54.2574 7.38847 51.5025 7.38847H45.8218V13.893Z" fill="#242720"/>
<path d="M65.3432 4.40821C65.3432 3.63498 64.6826 3.47179 64.1309 3.41739V2.75684H81.8297C87.2346 2.75684 90.8715 5.40293 90.8715 10.4192C90.8715 14.3903 88.171 16.539 84.7517 17.864L89.6592 25.2505C90.0439 25.8567 90.8171 26.3541 91.5904 26.3541V27.0146H80.4542V26.3541C80.9516 26.3541 81.7792 26.187 81.7792 25.6391C81.7792 24.9242 78.0296 18.9131 77.5906 17.9767H72.2984V25.3632C72.2984 26.1365 72.9589 26.2997 73.7322 26.3541V27.0146H64.2474V26.3541C64.6904 26.2997 65.3509 26.1326 65.3509 25.3632V4.40821H65.3432ZM72.2906 13.3412H80.1201C82.4359 13.3412 83.9241 12.3504 83.9241 10.3648C83.9241 8.65517 82.9877 7.38847 79.7354 7.38847H72.2906V13.3412Z" fill="#242720"/>
<path d="M116.897 27.0146V26.3541C117.119 26.3541 117.612 26.3541 117.612 25.8567C117.612 25.2505 116.4 23.0979 116.015 22.1071H103.224C102.894 23.0979 101.623 25.2505 101.623 25.8567C101.623 26.3541 102.12 26.3541 102.338 26.3541V27.0146H94.0693V26.3541C94.5084 26.3541 95.0058 26.187 95.1728 25.8023C99.583 15.4899 104.712 4.73849 104.712 3.96914C104.712 3.58447 104.545 3.47179 103.997 3.41739V2.75684H115.522V3.41739C114.97 3.47179 114.803 3.58058 114.803 3.96914C114.803 4.62969 122.524 20.1254 124.948 25.8023C125.111 26.187 125.609 26.3541 126.052 26.3541V27.0146H116.897ZM114.138 18.136L109.507 8.48809L104.984 18.136H114.138Z" fill="#242720"/>
<path d="M137.957 2.75391V3.41446C136.854 3.46886 136.193 3.63594 136.193 4.40528V25.3564C136.193 26.1296 136.854 26.2928 137.957 26.3472V27.0078H127.039V26.3472C128.142 26.2928 128.803 26.1258 128.803 25.3564V4.40917C128.803 3.63594 128.142 3.47274 127.039 3.41834V2.75779H137.957V2.75391Z" fill="#242720"/>
<path d="M141.431 4.40821C141.431 3.63498 140.77 3.47179 140.218 3.41739V2.75684H157.917C163.322 2.75684 166.959 5.40293 166.959 10.4192C166.959 14.3903 164.258 16.539 160.839 17.864L165.747 25.2505C166.131 25.8567 166.905 26.3541 167.678 26.3541V27.0146H156.542V26.3541C157.039 26.3541 157.867 26.187 157.867 25.6391C157.867 24.9242 154.117 18.9131 153.678 17.9767H148.386V25.3632C148.386 26.1365 149.046 26.2997 149.82 26.3541V27.0146H140.335V26.3541C140.778 26.2997 141.438 26.1326 141.438 25.3632V4.40821H141.431ZM148.378 13.3412H156.207C158.523 13.3412 160.011 12.3504 160.011 10.3648C160.011 8.65517 159.075 7.38847 155.823 7.38847H148.378V13.3412Z" fill="#242720"/>
<path d="M181.519 2.75391V3.41446C180.415 3.46886 179.755 3.63594 179.755 4.40528V25.3564C179.755 26.1296 180.415 26.2928 181.519 26.3472V27.0078H170.6V26.3472C171.704 26.2928 172.364 26.1258 172.364 25.3564V4.40917C172.364 3.63594 171.704 3.47274 170.6 3.41834V2.75779H181.519V2.75391Z" fill="#242720"/>
<path d="M207.82 22.1619C208.481 22.1619 209.032 21.7772 209.254 20.7825H209.914V28.169H209.363C208.978 27.1782 208.702 27.0111 207.82 27.0111H183.228V26.3506C184.001 26.2962 184.771 26.1291 184.771 25.3597V4.40861C184.771 3.63537 183.997 3.47218 183.228 3.41778V2.75723H208.259C208.702 2.75723 209.25 2.53575 209.25 1.54492H209.91V8.93144H209.25C209.25 7.82793 208.698 7.61034 208.259 7.61034H192.157V12.0749H202.524C202.967 12.0749 203.515 11.8534 203.515 10.8082H204.175V17.9771H203.515C203.515 16.928 202.963 16.7104 202.524 16.7104H192.157V22.1697H207.816L207.82 22.1619Z" fill="#242720"/>
<path d="M17.9738 10.0469C21.5485 9.80985 21.6923 6.93062 21.9682 5.86985C24.249 6.43326 25.7411 5.8038 25.7411 4.52155C25.7411 3.23931 25.5701 1.88323 25.5701 1.87546C23.9226 1.60347 21.0667 1.92209 17.1228 5.24427C13.1906 8.59366 10.1676 16.0423 9.60808 23.7786C9.05244 31.4565 6.92313 38.7575 4.58789 41.1433C6.7172 41.3881 9.15347 40.8324 9.9811 40.6226C9.77128 39.8844 9.62362 39.1033 9.62362 38.3612C9.62362 37.1878 9.97721 36.263 10.6766 35.6141C11.7957 34.5766 13.3771 34.6815 13.447 34.6854C13.5364 34.6932 13.6219 34.7204 13.6957 34.7631C14.9391 32.1248 14.9857 23.4017 15.3976 17.9035C15.8289 12.1257 16.9557 10.9561 17.9777 10.0508L17.9738 10.0469Z" fill="#6D6E71"/>
<path d="M14.6397 44.5802C14.1579 44.2305 13.3264 44.1761 12.6891 44.2033C12.5298 44.5025 12.1024 45.1048 11.1582 45.4078C11.3564 45.5283 11.5468 45.6526 11.7294 45.777C11.9664 45.9363 12.3161 46.1772 12.4599 46.2005C12.5182 46.1772 12.5764 46.15 12.6308 46.1267C13.0233 45.9557 13.5129 45.742 14.2201 45.9246C14.6125 46.0256 14.9505 45.9946 15.4557 45.9441C15.58 45.9324 15.7121 45.9207 15.8559 45.9091C16.1357 45.8858 16.2134 45.8391 16.4426 45.6954C16.5359 45.6371 16.6447 45.571 16.7807 45.4972C16.7807 45.4972 15.9841 44.9649 15.3818 44.5297C15.1837 44.724 14.8689 44.7512 14.6358 44.5841L14.6397 44.5802Z" fill="#A7A9AC"/>
<path d="M4.58796 41.1408C4.49471 41.234 4.40145 41.3234 4.3082 41.405C3.35234 42.2171 2.35375 42.7766 1.66211 43.1069C2.41591 43.5848 3.98958 44.2376 6.94652 44.2376C9.28953 44.2376 10.5601 43.783 11.1313 43.4916C10.8282 42.8932 10.3231 41.813 9.98117 40.6162C9.15354 40.8299 6.71727 41.3856 4.58796 41.1369V41.1408Z" fill="#A7A9AC"/>
<path d="M22.504 21.1516C21.2217 21.1516 21.4549 20.6271 20.3552 20.6271C19.4538 20.6271 18.7388 21.5674 18.5679 22.5194C20.0599 24.2484 22.8925 24.0619 23.5881 23.8249C23.7163 23.7822 23.8367 23.7394 23.9533 23.6967C24.5983 23.4674 25.1501 23.2732 26.2225 23.2732C26.9297 23.2732 27.1317 23.2265 27.5319 23.1333C27.7456 23.0828 27.9982 23.0245 28.379 22.9584C28.5694 22.9235 28.7365 22.9001 28.8764 22.8807C28.9774 22.8652 29.0862 22.8496 29.1717 22.8341C29.1717 22.8108 29.1717 22.7836 29.1717 22.7486V21.8238C28.8686 21.4625 27.8816 20.4328 26.2303 20.1414C25.5425 20.0209 24.9014 19.881 24.2991 19.7295C24.2564 20.2113 23.9883 21.1555 22.5079 21.1555L22.504 21.1516Z" fill="white"/>
<path d="M17.7678 28.9968C17.7678 30.9201 18.2574 31.7283 18.2574 34.1063C18.2574 36.4843 16.843 37.5451 15.8988 38.5087C14.9546 39.4723 14.9546 40.8284 15.1528 41.827C15.2849 42.4953 15.1956 43.152 15.1217 43.5172C15.1878 43.5561 15.2577 43.5911 15.3199 43.6338C15.5802 43.8203 15.6385 44.1856 15.452 44.4459C15.4326 44.4731 15.4093 44.5003 15.3821 44.5236C15.9843 44.9588 16.7809 45.4911 16.7809 45.4911C16.4079 44.6285 16.3612 43.6455 16.3612 43.2025C16.3612 42.8062 16.5361 42.5575 16.6799 42.4215C16.7653 42.3399 16.8664 42.2816 16.9752 42.2272C16.8586 41.656 16.7925 41.046 16.7148 40.4787C16.6837 40.2261 16.6527 39.9736 16.6488 39.7404C16.6138 39.0138 17.6046 38.7457 17.9466 39.3752C18.3157 40.0707 18.5177 40.8323 18.5216 41.6055C18.7548 41.5239 18.984 41.4113 19.1899 41.3025C20.7403 40.4399 21.8593 38.975 22.6714 37.3858C23.0173 36.7175 24.0314 37.1993 23.7206 37.8909C23.06 39.3286 21.8865 41.0732 20.41 42.1417C20.7248 42.1534 21.0511 42.1612 21.4047 42.1612C23.4058 42.1612 25.2282 42.608 26.2229 42.9072C26.2384 42.4099 26.2773 41.7804 26.3822 41.2519C26.3783 41.2519 26.3744 41.2519 26.3705 41.2519C25.8693 41.1859 24.8318 41.046 24.8318 39.9697C24.8318 39.519 25.065 39.111 25.3603 38.5942C25.8499 37.7394 26.5182 36.5698 26.5182 34.5726C26.5182 32.047 25.7255 30.9901 25.3292 30.621C24.7308 31.2698 24.0975 31.6468 24.0469 31.6778C23.9537 31.7322 23.8527 31.7594 23.7555 31.7594C23.5535 31.7594 23.3592 31.6545 23.2504 31.4719C23.0872 31.1921 23.1805 30.8385 23.4602 30.6754C23.4758 30.6637 25.3098 29.568 25.2476 28.0992C25.1893 26.6965 25.2165 25.2083 25.2359 24.5322C24.929 24.5944 24.6647 24.6876 24.3422 24.8003C24.2218 24.8431 24.0975 24.8858 23.9615 24.9324C23.6156 25.049 23.0134 25.1461 22.2984 25.1461C21.6923 25.1461 21.0006 25.0762 20.3129 24.8858C19.3881 25.5269 17.7756 26.9374 17.7756 28.9968H17.7678Z" fill="white"/>
<path d="M28.6356 18.8783C26.8871 18.684 25.4261 17.9613 25.3678 17.9302C25.1696 17.833 25.0453 17.631 25.0453 17.4095V14.0485C25.0453 13.182 24.9676 12.603 24.8938 12.2455C23.46 13.1975 22.2943 13.6444 22.2632 13.656C21.9601 13.7687 21.626 13.6172 21.5133 13.3141C21.4006 13.011 21.5522 12.6768 21.8552 12.5642C21.9057 12.5447 25.2202 11.2586 27.3689 8.41435C27.0969 8.14624 26.685 7.91699 26.3742 7.78877C25.8419 7.57117 26.4208 6.71634 27.466 6.71634C27.8896 6.71634 28.2276 6.64251 28.4996 6.47155C28.8104 5.74106 29.0319 4.93674 29.1213 4.05859C28.2665 4.28007 26.5374 4.89788 25.5271 6.46378C24.5169 7.80042 24.3109 9.10987 22.0029 10.7068C20.6274 11.5578 19.6987 11.6899 19.6987 13.4035C19.6987 14.8994 20.9849 16.4031 23.4367 18.2604C24.3148 18.5441 25.3018 18.7889 26.4247 18.9871C28.3364 19.3251 29.5176 20.4442 29.9878 20.9881C30.489 20.8832 30.9514 20.6695 30.9514 20.5141C30.9514 19.7914 30.6716 19.092 28.6278 18.8666L28.6356 18.8783Z" fill="white"/>
<path d="M19.7026 13.4113C19.7026 11.6939 20.6313 11.5657 22.0068 10.7147C24.311 9.11775 24.5208 7.8083 25.531 6.47166C26.5413 4.90576 28.2704 4.28407 29.1252 4.06648C29.1524 3.80226 29.1679 3.53415 29.1718 3.25439C28.4841 3.11451 27.8779 2.83086 26.9687 2.3335C26.7084 2.18973 26.2382 1.9838 25.5738 1.875C25.5738 1.88277 25.7447 3.24273 25.7447 4.52109C25.7447 5.79945 24.2527 6.4328 21.9718 5.86939C21.6959 6.93016 21.5522 9.81327 17.9774 10.0464C16.9555 10.9518 15.8287 12.1213 15.3974 17.8992C14.9855 23.3973 14.9428 32.1205 13.6955 34.7588C13.882 34.8676 14.0025 35.0735 13.9869 35.3067C13.9636 35.6253 13.6839 35.8701 13.3652 35.8429C13.3458 35.8429 12.2073 35.7768 11.4691 36.4685C11.0222 36.8881 10.793 37.5215 10.793 38.3569C10.793 40.1131 11.8032 42.2502 12.2229 43.0662C12.8951 43.0001 14.1929 42.9691 15.1254 43.5169C15.1992 43.1517 15.2886 42.495 15.1565 41.8267C14.9583 40.8242 14.9583 39.4681 15.9025 38.5084C16.8467 37.5448 18.2611 36.484 18.2611 34.106C18.2611 31.728 17.7715 30.9237 17.7715 28.9965C17.7715 26.9371 19.384 25.5266 20.3088 24.8855C19.1587 24.5669 18.0085 23.9141 17.2547 22.7018C17.0837 22.4298 17.1692 22.0684 17.4412 21.8975C17.7132 21.7265 18.0746 21.812 18.2455 22.084C18.3427 22.2394 18.4515 22.3832 18.568 22.5153C18.739 21.5633 19.454 20.623 20.3554 20.623C21.455 20.623 21.218 21.1476 22.5042 21.1476C23.9846 21.1476 24.2566 20.2072 24.2954 19.7215C22.5974 19.2902 21.2258 18.7268 20.1417 18.0196C19.8736 17.8448 19.7959 17.4834 19.9707 17.2114C20.1456 16.9433 20.507 16.8656 20.7789 17.0405C21.5056 17.5145 22.3915 17.9186 23.4406 18.2567C20.9849 16.4032 19.7026 14.8956 19.7026 13.3997V13.4113Z" fill="#A7A9AC"/>
<path d="M18.2612 6.98751C18.2612 6.98751 19.3219 6.45518 20.0213 7.36052C20.7207 8.26587 20.3866 8.81374 19.7571 8.88368C19.1276 8.95362 18.5798 8.81374 18.5992 8.23478C18.6186 7.65583 18.0008 7.18567 18.265 6.98751H18.2612Z" fill="#231F20"/>
<path d="M25.4886 4.57969C25.4886 5.12756 24.9018 5.57052 24.183 5.57052C23.4642 5.57052 22.8774 5.12756 22.8774 4.57969C22.8774 4.03183 23.4642 3.58887 24.183 3.58887C24.9018 3.58887 25.4886 4.03183 25.4886 4.57969Z" fill="#231F20"/>
<path d="M49.2067 33.1517C48.5423 32.4873 47.7768 31.9666 46.9103 31.5897C46.0399 31.2089 45.119 31.0186 44.1399 31.0186C43.1607 31.0186 42.2398 31.2089 41.3811 31.5897C40.5185 31.9705 39.7608 32.4912 39.1041 33.1517C38.4475 33.8162 37.9346 34.5778 37.5693 35.4404C37.2041 36.303 37.0176 37.2161 37.0176 38.1836C37.0176 39.1511 37.2002 40.1225 37.5693 40.9929C37.9346 41.8633 38.4475 42.6171 39.1041 43.2621C39.7608 43.9071 40.5185 44.4122 41.3811 44.7775C42.2437 45.1427 43.1646 45.3292 44.1399 45.3292C45.1152 45.3292 46.0399 45.1466 46.9103 44.7775C47.7807 44.4122 48.5461 43.8993 49.2067 43.2426C49.8711 42.586 50.3879 41.8283 50.7609 40.9657C51.1339 40.1031 51.3205 39.1783 51.3205 38.1875C51.3205 37.1967 51.1339 36.3069 50.7609 35.4442C50.3879 34.5816 49.8711 33.8201 49.2067 33.1556V33.1517ZM48.5617 40.8064C48.1109 41.5913 47.5048 42.2168 46.7471 42.6792C45.9894 43.1416 45.1385 43.3748 44.1982 43.3748C43.2578 43.3748 42.3836 43.1416 41.6103 42.6792C40.8371 42.2168 40.2271 41.5913 39.7763 40.8064C39.3256 40.0215 39.1003 39.1511 39.1003 38.1991C39.1003 37.2472 39.3217 36.3574 39.7647 35.5647C40.2076 34.772 40.8138 34.1426 41.5793 33.6724C42.3447 33.2023 43.2034 32.9691 44.1554 32.9691C45.1074 32.9691 45.9467 33.2023 46.7121 33.6646C47.4776 34.127 48.0876 34.7565 48.5461 35.5453C49.0046 36.3379 49.23 37.2161 49.23 38.1797C49.23 39.1433 49.0046 40.0215 48.5539 40.8064H48.5617Z" fill="#242720"/>
<path d="M63.4472 32.3317C62.5729 31.5585 61.3606 31.1738 59.8181 31.1738H55.9946V45.1697H58.0035V40.1496H60.0706C60.9332 40.1496 61.6637 40.0174 62.2621 39.7532C62.8605 39.489 63.3423 39.1354 63.7114 38.6925C64.0767 38.2495 64.3448 37.756 64.5119 37.2159C64.6789 36.6758 64.7644 36.128 64.7644 35.5762C64.7644 34.1852 64.3253 33.105 63.4511 32.3317H63.4472ZM62.6273 36.4077C62.5419 36.703 62.402 36.9867 62.2038 37.2587C62.0056 37.5268 61.7259 37.7521 61.3723 37.9231C61.0187 38.098 60.5757 38.1834 60.0512 38.1834H58.0035V33.1244H60.1483C60.6496 33.1244 61.0692 33.206 61.4034 33.3653C61.7375 33.5246 62.0056 33.7305 62.2038 33.9831C62.402 34.2357 62.5457 34.5038 62.6273 34.7952C62.7128 35.0866 62.7517 35.3586 62.7517 35.6151C62.7517 35.8482 62.7089 36.1124 62.6273 36.4077Z" fill="#242720"/>
<path d="M71.4014 39.1082H77.7932V37.1576H71.4014V33.1244H78.5665V31.1738H69.3926V45.1697H78.8346V43.2192H71.4014V39.1082Z" fill="#242720"/>
<path d="M92.4806 38.6847C92.8458 38.2456 93.1139 37.7599 93.281 37.2159C93.4481 36.6758 93.5336 36.128 93.5336 35.5762C93.5336 34.6242 93.316 33.8238 92.8886 33.171C92.4572 32.5221 91.8628 32.0248 91.1012 31.6867C90.3435 31.3448 89.4731 31.1738 88.4939 31.1738H84.6899V45.1697H86.6988V40.1301H88.7659C88.8864 40.1301 89.003 40.1224 89.1195 40.1146L92.3562 45.1659H94.7109L91.2372 39.6211C91.7423 39.3724 92.1619 39.0616 92.4806 38.6769V38.6847ZM86.6988 33.1244H88.8436C89.3332 33.1244 89.7451 33.206 90.0793 33.3653C90.4134 33.5246 90.6815 33.7383 90.8797 34.0025C91.0779 34.2668 91.2255 34.5426 91.3149 34.8341C91.4042 35.1255 91.4509 35.3975 91.4509 35.6539C91.4509 35.9997 91.3732 36.3728 91.2177 36.7652C91.0623 37.1576 90.7903 37.4918 90.3979 37.7677C90.0054 38.0436 89.4498 38.1834 88.7271 38.1834H86.6988V33.1244Z" fill="#242720"/>
<path d="M104.234 30.5957L98.0757 45.1706H100.085L101.522 41.658H106.795L108.174 45.1706H110.51L104.351 30.5957H104.234ZM102.233 39.9211L104.215 35.0836L106.115 39.9211H102.237H102.233Z" fill="#242720"/>
<path d="M113.505 33.1244H117.1V45.1697H119.124V33.1244H122.831V31.1738H113.505V33.1244Z" fill="#242720"/>
<path d="M129.899 31.1738H127.89V45.1697H129.899V31.1738Z" fill="#242720"/>
<path d="M146.836 41.0322L136.644 30.7314H136.566V45.1703H138.595L138.556 35.4796L148.748 45.656H148.806V31.1744H146.801L146.836 41.0322Z" fill="#242720"/>
<path d="M160.948 40.1886H163.672V42.7764C163.365 42.9551 162.988 43.0911 162.542 43.1805C162.099 43.2698 161.644 43.3165 161.182 43.3165C160.14 43.3165 159.223 43.1028 158.431 42.6792C157.638 42.2557 157.02 41.6651 156.577 40.9113C156.134 40.1575 155.913 39.2871 155.913 38.2963C155.913 37.2161 156.13 36.2835 156.569 35.4986C157.008 34.7138 157.626 34.1076 158.423 33.6841C159.219 33.2605 160.16 33.0468 161.24 33.0468C161.574 33.0468 161.943 33.0857 162.351 33.1634C162.755 33.2411 163.148 33.346 163.529 33.482C163.909 33.618 164.228 33.7618 164.484 33.9172L165.16 32.0444C164.632 31.749 164.014 31.5043 163.307 31.31C162.6 31.1157 161.827 31.0186 160.991 31.0186C160.028 31.0186 159.114 31.1817 158.26 31.512C157.405 31.8423 156.639 32.3202 155.971 32.9497C155.303 33.5792 154.778 34.3602 154.397 35.2849C154.017 36.2136 153.826 37.2744 153.826 38.4711C153.826 39.7845 154.125 40.954 154.724 41.9837C155.322 43.0134 156.169 43.8255 157.261 44.4277C158.357 45.0261 159.647 45.3253 161.143 45.3253C161.543 45.3253 161.967 45.2865 162.417 45.2087C162.868 45.131 163.307 45.0261 163.738 44.8901C164.17 44.7541 164.558 44.6026 164.908 44.4355C165.254 44.2684 165.526 44.1014 165.72 43.9343V38.238H160.952V40.1886H160.948Z" fill="#242720"/>
<path d="M189.683 43.0493C189.135 43.2669 188.502 43.3757 187.783 43.3757C186.78 43.3757 185.902 43.1503 185.156 42.6996C184.41 42.2489 183.835 41.6311 183.427 40.8462C183.023 40.0613 182.817 39.1715 182.817 38.1807C182.817 37.1898 183.038 36.3195 183.481 35.5346C183.924 34.7497 184.519 34.1241 185.257 33.6617C185.995 33.1993 186.804 32.9662 187.682 32.9662C188.35 32.9662 188.96 33.0828 189.508 33.312C190.056 33.5451 190.514 33.7899 190.887 34.0464L191.699 32.1541C191.222 31.8588 190.639 31.5946 189.943 31.3614C189.248 31.1283 188.474 31.0156 187.627 31.0156C186.625 31.0156 185.7 31.1944 184.857 31.5557C184.014 31.9171 183.283 32.4222 182.665 33.0711C182.048 33.72 181.57 34.4855 181.228 35.3675C180.886 36.2495 180.715 37.217 180.715 38.2739C180.715 39.2259 180.874 40.1235 181.197 40.9666C181.519 41.8098 181.985 42.5558 182.595 43.2047C183.206 43.8536 183.944 44.3665 184.806 44.7395C185.669 45.1126 186.648 45.3068 187.74 45.3185C188.385 45.3302 188.98 45.268 189.527 45.1242C190.075 44.9843 190.549 44.8134 190.957 44.6113C191.361 44.4132 191.676 44.2422 191.894 44.0984L191.023 42.2839C190.674 42.5675 190.227 42.8201 189.683 43.0377V43.0493Z" fill="#242720"/>
<path d="M209.441 35.4404C209.068 34.5778 208.547 33.8162 207.887 33.1517C207.222 32.4873 206.457 31.9666 205.59 31.5897C204.72 31.2089 203.799 31.0186 202.82 31.0186C201.841 31.0186 200.92 31.2089 200.057 31.5897C199.195 31.9705 198.437 32.4912 197.78 33.1517C197.124 33.8162 196.611 34.5778 196.246 35.4404C195.88 36.303 195.694 37.2161 195.694 38.1836C195.694 39.1511 195.876 40.1225 196.246 40.9929C196.611 41.8633 197.124 42.6171 197.78 43.2621C198.437 43.9071 199.195 44.4122 200.057 44.7775C200.92 45.1427 201.841 45.3292 202.82 45.3292C203.799 45.3292 204.72 45.1466 205.59 44.7775C206.461 44.4122 207.226 43.8993 207.887 43.2426C208.551 42.586 209.068 41.8283 209.441 40.9657C209.814 40.1031 210.001 39.1783 210.001 38.1875C210.001 37.1967 209.814 36.3069 209.441 35.4442V35.4404ZM207.238 40.8064C206.787 41.5913 206.181 42.2168 205.423 42.6792C204.662 43.1416 203.815 43.3748 202.874 43.3748C201.934 43.3748 201.06 43.1416 200.287 42.6792C199.513 42.2168 198.903 41.5913 198.453 40.8064C198.002 40.0215 197.777 39.1511 197.777 38.1991C197.777 37.2472 197.998 36.3574 198.441 35.5647C198.884 34.772 199.49 34.1426 200.256 33.6724C201.021 33.2023 201.88 32.9691 202.832 32.9691C203.784 32.9691 204.623 33.2023 205.388 33.6646C206.154 34.127 206.764 34.7565 207.222 35.5453C207.677 36.3379 207.906 37.2161 207.906 38.1797C207.906 39.1433 207.681 40.0215 207.23 40.8064H207.238Z" fill="#242720"/>
</svg>
