<svg width="184" height="29" viewBox="0 0 184 29" fill="none" xmlns="http://www.w3.org/2000/svg">
<g id="Secondary Logo">
<g id="Secondary Logo_2">
<path d="M9.67099 24.0924L0 0H9.61283L14.4774 12.1187L12.8501 16.1725L7.57746 3.03718H4.4737L11.2982 20.0386L9.67099 24.0924Z" fill="#1C1C1C"/>
<path d="M11.2716 27.9423L22.488 0H32.1008L26.9803 12.7563H23.7257L27.6271 3.03726H24.5233L15.7453 24.905H18.8491L21.2875 18.8305H19.5795L20.7987 15.7933L25.7611 15.7935L20.8844 27.9422L11.2716 27.9423Z" fill="#1C1C1C"/>
<path fill-rule="evenodd" clip-rule="evenodd" d="M86.0723 23.2974C84.9877 23.2974 84.0193 23.0323 83.1671 22.502C82.3148 21.9718 81.6408 21.2466 81.145 20.3264C80.6491 19.4063 80.4012 18.3614 80.4012 17.1917C80.4012 16.022 80.6491 14.9849 81.145 14.0803C81.6408 13.1602 82.3148 12.4428 83.1671 11.9281C84.0193 11.3979 84.9877 11.1327 86.0723 11.1327C86.94 11.1327 87.6993 11.2965 88.3501 11.624C89.0009 11.9515 89.5277 12.4116 89.9305 13.0042V6.17331H92.9056V23.0167H90.2559L89.9305 21.3557C89.5587 21.8704 89.0628 22.3227 88.443 22.7126C87.8387 23.1025 87.0485 23.2974 86.0723 23.2974ZM86.6999 20.6773C87.6606 20.6773 88.443 20.3576 89.0473 19.7182C89.6671 19.0632 89.977 18.2288 89.977 17.2151C89.977 16.2014 89.6671 15.3748 89.0473 14.7354C88.443 14.0803 87.6606 13.7528 86.6999 13.7528C85.7547 13.7528 84.9722 14.0725 84.3524 14.712C83.7326 15.3514 83.4227 16.178 83.4227 17.1917C83.4227 18.2054 83.7326 19.0398 84.3524 19.6948C84.9722 20.3498 85.7547 20.6773 86.6999 20.6773Z" fill="#1C1C1C"/>
<path d="M46.6239 23.0167L40.6739 6.64118H43.8581L48.46 19.9521L53.0853 6.64118H56.223L50.2729 23.0167H46.6239Z" fill="#1C1C1C"/>
<path fill-rule="evenodd" clip-rule="evenodd" d="M60.2025 23.2974C59.0403 23.2974 58.0099 23.0479 57.1112 22.5488C56.2125 22.0497 55.5075 21.3479 54.9962 20.4434C54.4849 19.5388 54.2292 18.4939 54.2292 17.3086C54.2292 16.1078 54.4771 15.0395 54.973 14.1037C55.4843 13.168 56.1816 12.4428 57.0648 11.9281C57.9635 11.3979 59.0171 11.1327 60.2257 11.1327C61.3568 11.1327 62.3562 11.3823 63.2239 11.8813C64.0917 12.3804 64.7657 13.0666 65.246 13.94C65.7419 14.7977 65.9898 15.7569 65.9898 16.8174C65.9898 16.9889 65.982 17.1683 65.9665 17.3554C65.9665 17.5426 65.9588 17.7375 65.9433 17.9403H57.181C57.243 18.8448 57.5528 19.5544 58.1107 20.0691C58.684 20.5837 59.3735 20.8411 60.1792 20.8411C60.7835 20.8411 61.2871 20.7085 61.69 20.4434C62.1083 20.1627 62.4182 19.804 62.6197 19.3673H65.6411C65.4242 20.1003 65.0601 20.7709 64.5488 21.3791C64.0529 21.9718 63.4331 22.4396 62.6894 22.7827C61.9611 23.1259 61.1322 23.2974 60.2025 23.2974ZM60.2257 13.5657C59.4974 13.5657 58.8544 13.7762 58.2966 14.1973C57.7388 14.6028 57.3824 15.2266 57.2275 16.0688H62.9683C62.9218 15.3046 62.6429 14.6964 62.1316 14.2441C61.6202 13.7918 60.9849 13.5657 60.2257 13.5657Z" fill="#1C1C1C"/>
<path d="M67.5622 11.4135V23.0167H70.5373V17.0279C70.5373 15.9674 70.8007 15.1408 71.3275 14.5482C71.8698 13.9556 72.5593 13.6593 73.3961 13.6593C74.2483 13.6593 74.8758 13.9244 75.2787 14.4546C75.6815 14.9849 75.883 15.7491 75.883 16.7472V23.0167H78.858V16.4665C78.858 14.7198 78.4629 13.3941 77.6726 12.4896C76.8824 11.585 75.7745 11.1327 74.349 11.1327C73.4348 11.1327 72.6368 11.3355 71.955 11.741C71.2888 12.1465 70.7774 12.6923 70.4211 13.3785L70.1886 11.4135H67.5622Z" fill="#1C1C1C"/>
<path fill-rule="evenodd" clip-rule="evenodd" d="M97.2831 22.5254C98.1818 23.0401 99.1889 23.2974 100.305 23.2974C101.405 23.2974 102.404 23.0401 103.303 22.5254C104.202 22.0108 104.907 21.3012 105.418 20.3966C105.945 19.4765 106.208 18.4159 106.208 17.2151C106.208 16.0142 105.945 14.9615 105.418 14.0569C104.907 13.1368 104.202 12.4194 103.303 11.9047C102.42 11.3901 101.428 11.1327 100.328 11.1327C99.2122 11.1327 98.205 11.3901 97.3063 11.9047C96.4231 12.4194 95.7181 13.1368 95.1913 14.0569C94.6645 14.9615 94.401 16.0142 94.401 17.2151C94.401 18.4159 94.6567 19.4765 95.168 20.3966C95.6949 21.3012 96.3999 22.0108 97.2831 22.5254ZM102.327 19.8351C101.753 20.4122 101.079 20.7007 100.305 20.7007C99.5298 20.7007 98.8558 20.4122 98.2825 19.8351C97.7247 19.2425 97.4458 18.3692 97.4458 17.2151C97.4458 16.061 97.7247 15.1954 98.2825 14.6184C98.8558 14.0257 99.5376 13.7294 100.328 13.7294C101.087 13.7294 101.753 14.0257 102.327 14.6184C102.9 15.1954 103.187 16.061 103.187 17.2151C103.187 18.3692 102.9 19.2425 102.327 19.8351Z" fill="#1C1C1C"/>
<path d="M107.706 11.4135H110.356L110.634 13.5891C111.053 12.8405 111.618 12.2478 112.331 11.8112C113.059 11.3589 113.912 11.1327 114.888 11.1327V14.2909H114.051C113.4 14.2909 112.819 14.3922 112.308 14.595C111.797 14.7977 111.394 15.1486 111.099 15.6477C110.82 16.1468 110.681 16.8408 110.681 17.7297V23.0167H107.706V11.4135Z" fill="#1C1C1C"/>
<path d="M119.617 22.2447C120.764 22.9465 122.104 23.2974 123.638 23.2974C124.862 23.2974 125.869 23.0869 126.66 22.6658C127.45 22.2447 128.108 21.6443 128.635 20.8645L128.868 23.0167H131.61V14.0102H124.498V16.2559H128.612C128.457 17.566 128 18.6265 127.241 19.4375C126.497 20.2328 125.389 20.6305 123.917 20.6305C122.414 20.6305 121.221 20.1393 120.338 19.1567C119.47 18.1586 119.036 16.755 119.036 14.9459C119.036 13.1368 119.478 11.7176 120.361 10.6883C121.244 9.64335 122.499 9.12089 124.126 9.12089C125.149 9.12089 125.986 9.33923 126.636 9.77592C127.287 10.197 127.737 10.7896 127.984 11.5538H131.308C130.936 9.93187 130.123 8.66082 128.868 7.74068C127.613 6.82053 126.032 6.36045 124.126 6.36045C122.453 6.36045 121.004 6.72696 119.78 7.45995C118.571 8.17735 117.634 9.18328 116.968 10.4777C116.317 11.7566 115.991 13.2382 115.991 14.9225C115.991 16.5912 116.309 18.0572 116.944 19.3205C117.58 20.5682 118.471 21.5429 119.617 22.2447Z" fill="#1C1C1C"/>
<path d="M133.271 11.4135H135.92L136.199 13.5891C136.617 12.8405 137.183 12.2478 137.896 11.8112C138.624 11.3589 139.476 11.1327 140.452 11.1327V14.2909H139.616C138.965 14.2909 138.384 14.3922 137.873 14.595C137.361 14.7977 136.958 15.1486 136.664 15.6477C136.385 16.1468 136.246 16.8408 136.246 17.7297V23.0167H133.271V11.4135Z" fill="#1C1C1C"/>
<path fill-rule="evenodd" clip-rule="evenodd" d="M143.862 22.5254C144.761 23.0401 145.768 23.2974 146.883 23.2974C147.984 23.2974 148.983 23.0401 149.882 22.5254C150.78 22.0108 151.485 21.3012 151.997 20.3966C152.524 19.4765 152.787 18.4159 152.787 17.2151C152.787 16.0142 152.524 14.9615 151.997 14.0569C151.485 13.1368 150.78 12.4194 149.882 11.9047C148.999 11.3901 148.007 11.1327 146.907 11.1327C145.791 11.1327 144.784 11.3901 143.885 11.9047C143.002 12.4194 142.297 13.1368 141.77 14.0569C141.243 14.9615 140.98 16.0142 140.98 17.2151C140.98 18.4159 141.236 19.4765 141.747 20.3966C142.274 21.3012 142.979 22.0108 143.862 22.5254ZM148.906 19.8351C148.332 20.4122 147.658 20.7007 146.883 20.7007C146.109 20.7007 145.435 20.4122 144.861 19.8351C144.304 19.2425 144.025 18.3692 144.025 17.2151C144.025 16.061 144.304 15.1954 144.861 14.6184C145.435 14.0257 146.116 13.7294 146.907 13.7294C147.666 13.7294 148.332 14.0257 148.906 14.6184C149.479 15.1954 149.765 16.061 149.765 17.2151C149.765 18.3692 149.479 19.2425 148.906 19.8351Z" fill="#1C1C1C"/>
<path d="M158.84 23.2974C157.399 23.2974 156.284 22.8451 155.493 21.9406C154.719 21.036 154.331 19.7104 154.331 17.9637V11.4135H157.283V17.6829C157.283 18.6811 157.484 19.4453 157.887 19.9755C158.29 20.5058 158.926 20.7709 159.793 20.7709C160.614 20.7709 161.288 20.4746 161.815 19.8819C162.358 19.2893 162.629 18.4627 162.629 17.4022V11.4135H165.604V23.0167H162.977L162.745 21.0516C162.389 21.7378 161.87 22.2837 161.188 22.6892C160.521 23.0947 159.739 23.2974 158.84 23.2974Z" fill="#1C1C1C"/>
<path fill-rule="evenodd" clip-rule="evenodd" d="M167.496 11.4135V28.1633H170.471V21.4259C170.874 22.0186 171.4 22.4786 172.051 22.8061C172.702 23.1337 173.461 23.2974 174.329 23.2974C175.414 23.2974 176.382 23.0401 177.234 22.5254C178.086 21.9952 178.76 21.2778 179.256 20.3732C179.752 19.4531 180 18.4081 180 17.2385C180 16.0688 179.752 15.0239 179.256 14.1037C178.76 13.1836 178.086 12.4584 177.234 11.9281C176.382 11.3979 175.414 11.1327 174.329 11.1327C173.353 11.1327 172.555 11.3277 171.935 11.7176C171.331 12.1075 170.843 12.5598 170.471 13.0744L170.145 11.4135H167.496ZM176.049 19.7182C175.429 20.3576 174.647 20.6773 173.701 20.6773C172.741 20.6773 171.95 20.3576 171.331 19.7182C170.726 19.0632 170.424 18.2288 170.424 17.2151C170.424 16.2014 170.726 15.3748 171.331 14.7354C171.95 14.0803 172.741 13.7528 173.701 13.7528C174.647 13.7528 175.429 14.0803 176.049 14.7354C176.669 15.3904 176.979 16.2247 176.979 17.2385C176.979 18.2522 176.669 19.0788 176.049 19.7182Z" fill="#1C1C1C"/>
</g>
<path id="™" d="M180 11.7117V11.3265H181.3V11.7117H180.891V13.0164H180.409V11.7117H180ZM181.55 13.0164V11.3265H182.191L182.614 12.4387L183.081 11.3265H183.673V13.0164H183.231V11.9091L182.764 13.0164H182.436L181.979 11.8947V13.0164H181.55Z" fill="#1C1C1C"/>
</g>
</svg>